<svg id="visual" viewBox="0 0 960 540" width="960" height="540" xmlns="http://www.w3.org/2000/svg" xmlns:xlink="http://www.w3.org/1999/xlink" version="1.1"><rect x="0" y="0" width="960" height="540" fill="#fff"></rect><defs><linearGradient id="grad1_0" x1="43.8%" y1="0%" x2="100%" y2="100%"><stop offset="14.444444444444446%" stop-color="#ffffff" stop-opacity="1"></stop><stop offset="85.55555555555554%" stop-color="#ffffff" stop-opacity="1"></stop></linearGradient></defs><defs><linearGradient id="grad2_0" x1="0%" y1="0%" x2="56.3%" y2="100%"><stop offset="14.444444444444446%" stop-color="#ffffff" stop-opacity="1"></stop><stop offset="85.55555555555554%" stop-color="#ffffff" stop-opacity="1"></stop></linearGradient></defs><g transform="translate(960, 0)"><path d="M0 198C-20.7 197.8 -41.5 197.6 -63.3 195C-85.2 192.3 -108.2 187.1 -127 174.7C-145.7 162.4 -160.2 142.7 -168.3 122.3C-176.3 101.8 -178 80.5 -184.5 59.9C-191.1 39.4 -202.5 19.7 -214 0L0 0Z" fill="#ffc300"></path></g><g transform="translate(0, 540)"><path d="M0 -216C22.9 -213.9 45.8 -211.9 66.1 -203.5C86.4 -195.2 104.2 -180.5 120.5 -165.8C136.8 -151.2 151.8 -136.7 165 -119.9C178.3 -103.1 189.9 -84 195.9 -63.7C202 -43.3 202.5 -21.6 203 0L0 0Z" fill="#ffc300"></path></g></svg>