<svg id="visual" viewBox="0 0 960 540" width="960" height="540" xmlns="http://www.w3.org/2000/svg" xmlns:xlink="http://www.w3.org/1999/xlink" version="1.1"><rect width="960" height="540" fill="#fff"></rect><g>
<!-- <g transform="translate(171 180)"><path d="M52.2 -52.1C65.9 -38.4 74.1 -19.2 72.9 -1.2C71.7 16.7 60.9 33.5 47.2 45.7C33.5 57.8 16.7 65.5 -0.3 65.7C-17.3 66 -34.6 58.9 -47.8 46.8C-61 34.6 -70.2 17.3 -70.1 0.1C-70 -17.1 -60.6 -34.2 -47.4 -47.9C-34.2 -61.6 -17.1 -72 1.1 -73C19.2 -74.1 38.4 -65.9 52.2 -52.1Z" fill="#ffc300"></path></g> -->
<g transform="translate(693 449)"><path d="M43.8 -44.6C54.7 -32.8 60.2 -16.4 58.8 -1.5C57.3 13.5 48.8 26.9 37.9 36.4C26.9 45.9 13.5 51.4 -0.1 51.6C-13.7 51.7 -27.4 46.4 -37.6 36.9C-47.8 27.4 -54.5 13.7 -54.7 -0.2C-54.9 -14.2 -48.7 -28.3 -38.5 -40.1C-28.3 -51.9 -14.2 -61.3 1.1 -62.4C16.4 -63.6 32.8 -56.4 43.8 -44.6Z" fill="#ffc300"></path></g>
<g transform="translate(493 228)"><path d="M18.8 -18.7C23.8 -13.8 27 -6.9 26.8 -0.1C26.7 6.6 23.3 13.2 18.2 17.7C13.2 22.3 6.6 24.7 -0.9 25.6C-8.4 26.5 -16.7 25.8 -22.6 21.3C-28.5 16.7 -31.9 8.4 -31 0.9C-30 -6.5 -24.8 -13 -18.9 -18C-13 -23 -6.5 -26.4 0.2 -26.6C6.9 -26.7 13.8 -23.7 18.8 -18.7Z" fill="#ffc300"></path></g>
<g transform="translate(661 109)"><path d="M32.4 -31.3C41.5 -23.3 48.1 -11.6 48.9 0.7C49.6 13.1 44.5 26.2 35.4 35.1C26.2 44 13.1 48.7 0.7 48.1C-11.8 47.4 -23.5 41.3 -32.2 32.4C-40.9 23.5 -46.5 11.8 -46.4 0.1C-46.3 -11.6 -40.5 -23.1 -31.8 -31.1C-23.1 -39.1 -11.6 -43.5 0 -43.5C11.6 -43.6 23.3 -39.3 32.4 -31.3Z" fill="#ffc300"></path></g>
<!-- <g transform="translate(229 436)"><path d="M9.7 -9.7C12.6 -6.8 15 -3.4 15.1 0.1C15.2 3.6 13 7.1 10.1 9.5C7.1 11.9 3.6 13.2 -0.2 13.4C-3.9 13.5 -7.9 12.7 -10.3 10.3C-12.8 7.9 -13.8 3.9 -13.5 0.3C-13.3 -3.4 -11.7 -6.8 -9.2 -9.7C-6.8 -12.7 -3.4 -15.3 0 -15.3C3.4 -15.3 6.8 -12.7 9.7 -9.7Z" fill="#ffc300"></path></g> -->
<g transform="translate(814 210)"><path d="M13 -13.4C16.4 -9.7 18.3 -4.8 18.8 0.5C19.2 5.8 18.3 11.6 15 14.9C11.6 18.1 5.8 18.9 0.4 18.5C-4.9 18 -9.9 16.4 -13.2 13.2C-16.4 9.9 -18.1 4.9 -18.6 -0.5C-19.1 -6 -18.6 -12 -15.3 -15.7C-12 -19.5 -6 -20.9 -0.6 -20.4C4.8 -19.8 9.7 -17.2 13 -13.4Z" fill="#ffc300"></path></g>
<g transform="translate(83 421)"><path d="M19.4 -19.3C25.3 -13.5 30.3 -6.7 30.9 0.6C31.6 8 27.8 16.1 22 20.7C16.1 25.3 8 26.4 0.1 26.3C-7.8 26.2 -15.6 24.8 -20.5 20.2C-25.3 15.6 -27.2 7.8 -27.4 -0.2C-27.6 -8.2 -26.2 -16.5 -21.3 -22.3C-16.5 -28.1 -8.2 -31.4 -0.7 -30.6C6.7 -29.9 13.5 -25.1 19.4 -19.3Z" fill="#ffc300"></path></g>
<g transform="translate(457 412)"><path d="M8.5 -8.4C10.8 -6.3 12.1 -3.2 12.1 0.1C12.2 3.3 11 6.6 8.8 9C6.6 11.5 3.3 13 0.2 12.8C-2.8 12.6 -5.6 10.5 -7.6 8C-9.6 5.6 -10.9 2.8 -11.2 -0.3C-11.5 -3.4 -10.9 -6.9 -8.9 -9C-6.9 -11 -3.4 -11.7 -0.1 -11.6C3.2 -11.5 6.3 -10.5 8.5 -8.4Z" fill="#ffc300"></path></g></g></svg>