<?xml version="1.0" standalone="no"?>
<svg viewBox="0 0 200 200" xmlns="http://www.w3.org/2000/svg">
  <path fill="#FFC300" d="M38.7,-67.1C50.2,-60.4,59.7,-50.1,63.4,-38.4C67.1,-26.6,64.9,-13.3,67.3,1.4C69.7,16.1,76.6,32.2,73,44C69.4,55.9,55.3,63.6,41.3,67.7C27.4,71.9,13.7,72.7,0.6,71.6C-12.5,70.6,-25,67.7,-35.7,61.7C-46.5,55.7,-55.5,46.5,-63.1,35.7C-70.6,24.9,-76.7,12.4,-77.6,-0.5C-78.5,-13.5,-74.2,-26.9,-66.3,-37C-58.3,-47.1,-46.7,-53.9,-35,-60.6C-23.4,-67.2,-11.7,-73.8,1,-75.4C13.6,-77.1,27.2,-73.8,38.7,-67.1Z" transform="translate(100 100)" />
</svg>
