<?xml version="1.0" standalone="no"?>
<svg viewBox="0 0 200 200" xmlns="http://www.w3.org/2000/svg">
  <path fill="#FFC300" d="M41.1,-69.6C52.6,-64.5,61,-52.3,65.8,-39.5C70.6,-26.7,71.8,-13.4,71.1,-0.4C70.4,12.5,67.8,25.1,62,36.2C56.2,47.2,47.3,56.9,36.5,62C25.6,67.1,12.8,67.6,0.8,66.3C-11.3,65,-22.5,61.8,-35,57.6C-47.4,53.4,-61,48.2,-68.5,38.5C-75.9,28.7,-77.1,14.4,-78.1,-0.6C-79.1,-15.5,-79.7,-31,-73.3,-42.4C-66.8,-53.8,-53.2,-61.1,-39.8,-65.1C-26.3,-69.2,-13.2,-69.9,0.8,-71.2C14.8,-72.6,29.5,-74.6,41.1,-69.6Z" transform="translate(100 100)" />
</svg>
