<?xml version="1.0" standalone="no"?>
<svg viewBox="0 0 200 200" xmlns="http://www.w3.org/2000/svg">
  <path fill="#FFC300" d="M43.2,-74.6C56.4,-67.2,67.8,-56.4,72,-43.5C76.3,-30.5,73.5,-15.2,73.9,0.3C74.4,15.8,78.2,31.6,74.1,44.8C70,58.1,58,68.9,44.3,76.9C30.7,84.9,15.3,90.2,0.2,89.8C-14.9,89.4,-29.8,83.3,-44.2,75.8C-58.6,68.2,-72.5,59.1,-77.4,46.2C-82.3,33.3,-78.2,16.6,-76.4,1.1C-74.5,-14.5,-75,-29,-68.4,-38.9C-61.7,-48.8,-48,-54.1,-35.4,-61.8C-22.8,-69.6,-11.4,-79.8,1.8,-82.9C15,-86,30,-82,43.2,-74.6Z" transform="translate(100 100)" />
</svg>
