<?xml version="1.0" standalone="no"?>
<svg viewBox="0 0 200 200" xmlns="http://www.w3.org/2000/svg">
  <path fill="#FFC300" d="M35.6,-60.7C48.2,-54.3,61.8,-49,68.2,-39C74.5,-29.1,73.4,-14.5,74.3,0.5C75.1,15.5,77.8,31,72.9,43.5C68.1,55.9,55.6,65.4,42.2,70.8C28.8,76.2,14.4,77.5,1.8,74.4C-10.8,71.3,-21.6,63.8,-31,56C-40.3,48.2,-48,40.2,-53.3,30.9C-58.6,21.5,-61.4,10.7,-66.2,-2.8C-71.1,-16.3,-77.9,-32.6,-74.1,-44.5C-70.2,-56.3,-55.6,-63.7,-41.5,-69.2C-27.3,-74.7,-13.7,-78.4,-1.1,-76.5C11.5,-74.6,23,-67.1,35.6,-60.7Z" transform="translate(100 100)" />
</svg>
