<?xml version="1.0" standalone="no"?>
<svg viewBox="0 0 200 200" xmlns="http://www.w3.org/2000/svg">
  <path fill="#FFC300" d="M40,-68.7C52.5,-62.2,63.5,-52.6,73.2,-40.7C82.9,-28.7,91.2,-14.4,90.6,-0.4C89.9,13.6,80.2,27.2,70.6,39.2C60.9,51.2,51.3,61.7,39.5,68.4C27.8,75.1,13.9,78,-0.7,79.1C-15.2,80.3,-30.4,79.6,-41.8,72.8C-53.3,65.9,-60.9,52.7,-66,39.6C-71.1,26.4,-73.7,13.2,-75.3,-1C-77,-15.1,-77.7,-30.2,-72.1,-42.4C-66.4,-54.6,-54.3,-63.9,-41.3,-70C-28.2,-76.2,-14.1,-79.1,-0.1,-78.9C13.8,-78.6,27.6,-75.2,40,-68.7Z" transform="translate(100 100)" />
</svg>
